<?xml version="1.0" encoding="utf-8"?>
<!-- Generator: Adobe Illustrator 27.5.0, SVG Export Plug-In . SVG Version: 6.00 Build 0)  -->
<svg version="1.1" xmlns="http://www.w3.org/2000/svg" xmlns:xlink="http://www.w3.org/1999/xlink" x="0px" y="0px"
	 viewBox="0 0 750 500" style="enable-background:new 0 0 750 500;" xml:space="preserve">
<g id="BACKGROUND">
	<rect x="0.001" y="0.001" style="fill:#FFFFFF;" width="750" height="500"/>
	<g>
		<defs>
			<rect id="SVGID_1_" x="0.001" y="0.001" width="750" height="500"/>
		</defs>
		<clipPath id="SVGID_00000154391733458342109310000001539708519581133725_">
			<use xlink:href="#SVGID_1_"  style="overflow:visible;"/>
		</clipPath>
		
			<rect x="0.001" y="0.001" style="clip-path:url(#SVGID_00000154391733458342109310000001539708519581133725_);fill:#FFFFFF;" width="750" height="500"/>
		<g style="clip-path:url(#SVGID_00000154391733458342109310000001539708519581133725_);">
			
				<linearGradient id="SVGID_00000070087458210954774800000008128491601463989912_" gradientUnits="userSpaceOnUse" x1="119.2611" y1="416.0958" x2="651.7345" y2="416.0958">
				<stop  offset="0" style="stop-color:#E5F6F9"/>
				<stop  offset="1" style="stop-color:#67D6F4"/>
			</linearGradient>
			<polygon style="fill:url(#SVGID_00000070087458210954774800000008128491601463989912_);" points="640.952,432.805 
				137.618,436.805 119.261,395.387 651.734,395.387 			"/>
			<g>
				
					<linearGradient id="SVGID_00000081642786012883561260000014471274132120914355_" gradientUnits="userSpaceOnUse" x1="102.3966" y1="122.1627" x2="244.3124" y2="122.1627">
					<stop  offset="0" style="stop-color:#E5F6F9"/>
					<stop  offset="1" style="stop-color:#67D6F4"/>
				</linearGradient>
				<path style="fill:url(#SVGID_00000081642786012883561260000014471274132120914355_);" d="M244.312,150.521
					c-0.469-2.129-1.867-3.984-4.165-5.047c-3.698-1.71-7.371-0.325-10.438,1.867c-0.151-4.951-2.182-9.965-7.146-11.943
					c-3.755-1.496-7.576-0.767-10.4,1.578c-2.598-19.1-10.198-43.532-33.072-43.167c-22.599,0.361-35.126,20.492-44.507,38.422
					c-2.158-2.667-5.504-3.894-9.259-3.281c-6.054,0.989-9.33,6.539-11.553,11.796c-1.969-1.143-4.584-0.9-6.492,0.623
					c-2.615,2.086-3.825,5.792-4.884,9.151H244.312z"/>
				
					<linearGradient id="SVGID_00000076578272355420690520000014385412039138252216_" gradientUnits="userSpaceOnUse" x1="152.5136" y1="58.9365" x2="203.0188" y2="58.9365">
					<stop  offset="0" style="stop-color:#E5F6F9"/>
					<stop  offset="1" style="stop-color:#67D6F4"/>
				</linearGradient>
				<path style="fill:url(#SVGID_00000076578272355420690520000014385412039138252216_);" d="M203.019,69.029
					c-0.167-0.758-0.665-1.418-1.482-1.796c-1.316-0.609-2.623-0.116-3.715,0.665c-0.054-1.762-0.777-3.546-2.543-4.25
					c-1.336-0.532-2.696-0.273-3.701,0.562c-0.924-6.797-3.629-15.492-11.769-15.362c-8.043,0.128-12.501,7.293-15.839,13.674
					c-0.768-0.949-1.959-1.386-3.295-1.168c-2.155,0.352-3.32,2.327-4.111,4.198c-0.701-0.407-1.631-0.32-2.31,0.222
					c-0.931,0.743-1.361,2.061-1.738,3.257H203.019z"/>
				
					<linearGradient id="SVGID_00000024003373660840098660000006112632827463113362_" gradientUnits="userSpaceOnUse" x1="229.9774" y1="64.7661" x2="327.9094" y2="64.7661">
					<stop  offset="0" style="stop-color:#E5F6F9"/>
					<stop  offset="1" style="stop-color:#67D6F4"/>
				</linearGradient>
				<path style="fill:url(#SVGID_00000024003373660840098660000006112632827463113362_);" d="M327.909,84.335
					c-0.323-1.469-1.288-2.749-2.874-3.483c-2.552-1.18-5.087-0.224-7.203,1.288c-0.104-3.417-1.506-6.877-4.931-8.241
					c-2.591-1.032-5.228-0.529-7.176,1.089c-1.792-13.18-7.037-30.04-22.822-29.788c-15.595,0.249-24.24,14.141-30.713,26.514
					c-1.489-1.841-3.798-2.687-6.389-2.264c-4.178,0.682-6.438,4.512-7.972,8.14c-1.359-0.789-3.163-0.621-4.48,0.43
					c-1.804,1.44-2.64,3.997-3.371,6.315H327.909z"/>
			</g>
			<g>
				<g>
					<path style="fill:#18D99F;" d="M533.381,396.078h9.076c0.07-2.773,0.151-5.546,0.209-8.319l-6.227-7.005
						c-2.125-2.352-4.248-4.701-6.374-7.055c-4.237-4.667-8.474-9.334-12.72-14.01c4.54,4.338,8.945,8.828,13.325,13.397
						c2.192,2.268,4.329,4.61,6.491,6.941l5.531,6.082l0.056-3.631c0.081-4.386,0.153-8.773,0.164-13.16l-6.284-6.793
						c-2.18-2.32-4.357-4.637-6.539-6.959c-4.347-4.602-8.694-9.204-13.049-13.815c4.628,4.266,9.166,8.689,13.639,13.191
						c2.268,2.235,4.442,4.544,6.655,6.842l5.586,5.897c0.023-5.215-0.003-10.429-0.073-15.643l-0.004-1.116l-5.204-5.426
						c-1.837-1.897-3.672-3.792-5.512-5.691c-3.659-3.798-7.336-7.564-10.95-11.375c3.919,3.468,7.749,7.073,11.529,10.738
						c1.916,1.816,3.763,3.702,5.626,5.572l4.505,4.563c-0.053-5.54-0.138-11.081-0.28-16.62c-2.88-2.896-5.759-5.791-8.642-8.691
						c-2.938-2.978-5.871-5.942-8.754-8.968c3.185,2.678,6.268,5.477,9.322,8.32c2.731,2.511,5.38,5.1,8.028,7.715
						c-0.082-3.153-0.182-6.305-0.307-9.456l-0.252-7.111c-1.716-1.658-3.41-3.314-5.085-5.021l-2.55-2.612
						c-0.823-0.9-1.671-1.768-2.471-2.689c0.966,0.725,1.885,1.509,2.83,2.265l2.753,2.371c1.525,1.318,3,2.691,4.459,4.078
						l-0.29-6.493c-0.2-5.072-0.445-10.142-0.74-15.211c0.474,5.055,0.898,10.115,1.277,15.179l0.438,6.775
						c1.366-1.578,2.73-3.158,4.132-4.695c1.586-1.756,3.187-3.506,4.875-5.182c-1.352,1.996-2.793,3.899-4.249,5.778
						c-1.438,1.889-2.979,3.71-4.501,5.52l-0.162,0.192l0.378,6.819c0.156,3.249,0.284,6.498,0.396,9.749
						c2.573-2.882,5.145-5.764,7.715-8.643l4.241-4.704c1.433-1.546,2.833-3.125,4.288-4.661c-1.272,1.716-2.588,3.374-3.892,5.052
						l-4.015,4.927c-2.667,3.268-5.46,6.449-8.224,9.598l-0.054,0.061c0.185,5.541,0.317,11.085,0.412,16.629l4.627-5.009
						l5.398-5.889l5.42-5.9l5.46-5.881c-1.663,2.131-3.378,4.197-5.067,6.281l-5.201,6.128c-1.716,2.043-3.523,4.014-5.291,6.004
						l-5.327,5.894l0.01,0.823c0.026,5.317,0.009,10.634-0.063,15.95c1.988-2.045,3.961-4.103,5.92-6.174l6.627-7.014l6.629-7.055
						l6.661-7.065c-2.06,2.534-4.184,4.997-6.274,7.473l-6.415,7.287c-2.122,2.424-4.35,4.77-6.523,7.131l-6.596,7.01l-0.051,0.054
						c-0.05,4.293-0.155,8.584-0.271,12.875l-0.142,3.923l6.119-6.129l6.731-6.849l6.733-6.89l6.765-6.899
						c-2.105,2.481-4.236,4.891-6.388,7.313l-6.524,7.126c-2.182,2.371-4.412,4.662-6.628,6.968l-6.7,6.847l-0.167,0.169
						c-0.109,2.668-0.234,5.334-0.372,8h9.897c2.127-1.887,4.404-4.135,6.663-6.793c7.773-9.122,15.288-23.098,15.05-41.941
						c-0.247-19.293-8.928-36.57-17.558-48.567c-4.302-6.022-8.599-10.772-11.804-14.015c-3.211-3.242-5.317-4.988-5.317-4.988
						s-1.788,2.096-4.425,5.778c-2.642,3.682-6.15,8.94-9.664,15.26c-7,12.681-14.009,29.421-13.78,47.374
						c0.222,17.544,7.139,30.768,14.351,40.081C528.791,391.317,531.185,393.919,533.381,396.078z"/>
					<path style="fill:#FFFFFF;" d="M530.679,354.942c-4.473-4.502-9.011-8.924-13.639-13.191
						c4.355,4.611,8.702,9.213,13.049,13.815c2.182,2.322,4.359,4.639,6.539,6.959l6.284,6.793
						c-0.011,4.387-0.083,8.774-0.164,13.16l-0.056,3.631l-5.531-6.082c-2.162-2.331-4.299-4.673-6.491-6.941
						c-4.38-4.569-8.785-9.059-13.325-13.397c4.245,4.676,8.482,9.343,12.72,14.01c2.127,2.354,4.25,4.703,6.374,7.055l6.227,7.005
						c-0.058,2.773-0.139,5.546-0.209,8.319h0.556c0.138-2.666,0.263-5.333,0.372-8l0.167-0.169l6.7-6.847
						c2.216-2.306,4.447-4.598,6.628-6.968l6.524-7.126c2.152-2.422,4.283-4.832,6.388-7.313l-6.765,6.899l-6.733,6.89l-6.731,6.849
						l-6.119,6.129l0.142-3.923c0.117-4.291,0.221-8.583,0.271-12.875l0.051-0.054l6.596-7.01c2.173-2.361,4.401-4.706,6.523-7.131
						l6.415-7.287c2.09-2.475,4.214-4.939,6.274-7.473l-6.661,7.065l-6.629,7.055l-6.627,7.014c-1.959,2.071-3.932,4.129-5.92,6.174
						c0.072-5.316,0.089-10.633,0.063-15.95l-0.01-0.823l5.327-5.894c1.769-1.99,3.575-3.961,5.291-6.004l5.201-6.128
						c1.688-2.083,3.404-4.15,5.067-6.281l-5.46,5.881l-5.42,5.9l-5.398,5.889l-4.627,5.009c-0.095-5.544-0.227-11.087-0.412-16.629
						l0.054-0.061c2.764-3.149,5.557-6.329,8.224-9.598l4.015-4.927c1.304-1.678,2.62-3.336,3.892-5.052
						c-1.455,1.535-2.856,3.115-4.288,4.661l-4.241,4.704c-2.57,2.879-5.142,5.761-7.715,8.643c-0.112-3.25-0.24-6.5-0.396-9.749
						l-0.378-6.819l0.162-0.192c1.521-1.81,3.062-3.631,4.501-5.52c1.456-1.88,2.897-3.783,4.249-5.778
						c-1.688,1.676-3.289,3.426-4.875,5.182c-1.402,1.537-2.766,3.117-4.132,4.695l-0.438-6.775
						c-0.379-5.064-0.803-10.124-1.277-15.179c0.295,5.068,0.54,10.139,0.74,15.211l0.29,6.493c-1.459-1.387-2.934-2.76-4.459-4.078
						l-2.753-2.371c-0.944-0.756-1.863-1.54-2.83-2.265c0.8,0.922,1.648,1.789,2.471,2.689l2.55,2.612
						c1.675,1.707,3.369,3.363,5.085,5.021l0.252,7.111c0.125,3.151,0.225,6.303,0.307,9.456c-2.648-2.615-5.297-5.204-8.028-7.715
						c-3.054-2.843-6.137-5.643-9.322-8.32c2.883,3.026,5.816,5.99,8.754,8.968c2.884,2.9,5.763,5.795,8.642,8.691
						c0.142,5.539,0.227,11.08,0.28,16.62l-4.505-4.563c-1.862-1.87-3.709-3.757-5.626-5.572c-3.779-3.665-7.609-7.27-11.529-10.738
						c3.614,3.811,7.291,7.577,10.95,11.375c1.839,1.899,3.674,3.794,5.512,5.691l5.204,5.426l0.004,1.116
						c0.07,5.214,0.096,10.429,0.073,15.643l-5.586-5.897C535.12,359.486,532.946,357.176,530.679,354.942z"/>
				</g>
				<g>
					<path style="fill:#00C4FF;" d="M544.743,396.078h6.613c1.732-2.312,3.474-4.619,5.196-6.938l-1.068-9.759
						c-0.388-3.297-0.775-6.591-1.163-9.892c-0.787-6.556-1.575-13.112-2.363-19.68c1.246,6.458,2.283,12.965,3.252,19.523
						c0.496,3.267,0.9,6.562,1.332,9.865l1.034,8.549l2.25-3.066c2.73-3.696,5.453-7.399,8.124-11.138l-1.245-9.613
						c-0.454-3.303-0.908-6.603-1.362-9.909c-0.92-6.567-1.841-13.134-2.763-19.714c1.364,6.451,2.556,12.98,3.645,19.538
						c0.581,3.284,1.036,6.575,1.532,9.88l1.193,8.425c3.183-4.439,6.325-8.908,9.428-13.403l0.674-0.955L577.897,350
						c-0.418-2.734-0.836-5.466-1.255-8.203c-0.82-5.463-1.676-10.909-2.45-16.356c1.243,5.339,2.327,10.741,3.33,16.164
						c0.535,2.713,0.968,5.444,1.423,8.171l1.079,6.63c3.316-4.763,6.604-9.546,9.843-14.363c-0.702-4.22-1.405-8.438-2.108-12.664
						c-0.702-4.326-1.409-8.635-2.035-12.969c1.096,4.219,2.03,8.48,2.913,12.76c0.808,3.801,1.5,7.618,2.175,11.458
						c1.843-2.742,3.669-5.494,5.474-8.261l4.098-6.225c-0.46-2.457-0.901-4.898-1.297-7.372l-0.593-3.777
						c-0.156-1.268-0.354-2.523-0.479-3.795c0.385,1.205,0.695,2.432,1.042,3.651l0.913,3.695c0.503,2.051,0.93,4.118,1.334,6.188
						l3.691-5.721c2.906-4.452,5.773-8.931,8.596-13.438c-2.662,4.604-5.37,9.182-8.118,13.737l-3.736,6.051
						c2.123-0.519,4.247-1.041,6.376-1.503c2.42-0.537,4.848-1.061,7.307-1.467c-2.365,0.884-4.75,1.635-7.134,2.357
						c-2.375,0.741-4.795,1.361-7.192,1.984l-0.255,0.066l-3.813,6.052c-1.837,2.869-3.7,5.721-5.576,8.565
						c3.945-0.901,7.89-1.801,11.831-2.701l6.475-1.445c2.161-0.451,4.315-0.95,6.489-1.379c-2.127,0.694-4.257,1.311-6.388,1.954
						l-6.417,1.772c-4.26,1.173-8.575,2.194-12.845,3.207l-0.083,0.02c-3.204,4.844-6.454,9.658-9.736,14.45l6.99-1.47l8.182-1.755
						l8.208-1.751l8.231-1.71c-2.713,0.811-5.431,1.535-8.137,2.29l-8.159,2.078c-2.705,0.703-5.443,1.291-8.161,1.917l-8.124,1.802
						l-0.491,0.709c-3.203,4.556-6.443,9.086-9.729,13.582c2.938-0.541,5.871-1.101,8.801-1.682l9.914-1.969l9.941-2.003
						l9.974-1.993c-3.296,0.914-6.604,1.729-9.891,2.575l-9.898,2.331c-3.283,0.783-6.609,1.434-9.896,2.132l-9.885,1.984
						l-0.076,0.015c-2.647,3.635-5.339,7.237-8.042,10.83l-2.501,3.264l8.943-1.522l9.903-1.765l9.929-1.799l9.962-1.787
						c-3.303,0.842-6.584,1.607-9.892,2.37l-9.893,2.127c-3.301,0.701-6.596,1.304-9.888,1.929l-9.875,1.782l-0.245,0.043
						c-1.613,2.085-3.238,4.161-4.872,6.23h30.666c8.896-4.294,18.068-11.182,25.593-22.064
						c11.493-16.625,14.56-36.645,14.469-52.125c-0.021-7.752-0.808-14.415-1.579-19.129c-0.775-4.716-1.514-7.485-1.514-7.485
						s-2.799,0.706-7.284,2.25c-4.49,1.541-10.675,3.903-17.51,7.169c-13.67,6.582-29.811,16.626-40.506,32.096
						c-10.454,15.117-12.568,30.604-12.06,42.932C542.656,386.37,543.731,392.045,544.743,396.078z"/>
					<path style="fill:#FFFFFF;" d="M555.484,379.38l1.068,9.759c-1.722,2.32-3.464,4.626-5.196,6.938h0.745
						c1.634-2.068,3.259-4.144,4.872-6.23l0.245-0.043l9.875-1.782c3.292-0.625,6.586-1.229,9.888-1.929l9.893-2.127
						c3.307-0.763,6.589-1.528,9.892-2.37l-9.962,1.787l-9.929,1.799l-9.903,1.765l-8.943,1.522l2.501-3.264
						c2.703-3.593,5.395-7.195,8.042-10.83l0.076-0.015l9.885-1.984c3.287-0.698,6.613-1.349,9.896-2.132l9.898-2.331
						c3.287-0.846,6.595-1.661,9.891-2.575l-9.974,1.993l-9.941,2.003l-9.914,1.969c-2.929,0.58-5.863,1.141-8.801,1.682
						c3.286-4.496,6.526-9.026,9.729-13.582l0.491-0.709l8.124-1.802c2.718-0.627,5.456-1.214,8.161-1.917l8.159-2.078
						c2.706-0.755,5.424-1.479,8.137-2.29l-8.231,1.71l-8.208,1.751l-8.182,1.755l-6.99,1.47c3.282-4.792,6.532-9.606,9.736-14.45
						l0.083-0.02c4.27-1.013,8.585-2.034,12.845-3.207l6.417-1.772c2.131-0.643,4.261-1.259,6.388-1.954
						c-2.174,0.428-4.328,0.928-6.489,1.379l-6.475,1.445c-3.942,0.9-7.886,1.8-11.831,2.701c1.876-2.844,3.738-5.696,5.576-8.565
						l3.813-6.052l0.255-0.066c2.397-0.623,4.818-1.243,7.192-1.984c2.384-0.722,4.768-1.473,7.134-2.357
						c-2.458,0.407-4.887,0.931-7.307,1.467c-2.129,0.462-4.253,0.984-6.376,1.503l3.736-6.051
						c2.748-4.555,5.456-9.133,8.118-13.737c-2.823,4.507-5.69,8.985-8.596,13.438l-3.691,5.721
						c-0.404-2.07-0.832-4.137-1.334-6.188l-0.913-3.695c-0.348-1.219-0.657-2.445-1.042-3.651c0.124,1.272,0.322,2.528,0.479,3.795
						l0.593,3.777c0.395,2.474,0.837,4.915,1.297,7.372l-4.098,6.225c-1.805,2.767-3.632,5.519-5.474,8.261
						c-0.675-3.84-1.367-7.658-2.175-11.458c-0.884-4.281-1.818-8.542-2.913-12.76c0.626,4.333,1.333,8.643,2.035,12.969
						c0.704,4.226,1.406,8.445,2.108,12.664c-3.239,4.817-6.527,9.599-9.843,14.363l-1.079-6.63
						c-0.456-2.727-0.888-5.458-1.423-8.171c-1.004-5.423-2.087-10.824-3.33-16.164c0.774,5.447,1.63,10.893,2.45,16.356
						c0.419,2.738,0.837,5.469,1.255,8.203l1.153,7.791l-0.674,0.955c-3.103,4.495-6.244,8.964-9.428,13.403l-1.193-8.425
						c-0.496-3.305-0.951-6.596-1.532-9.88c-1.089-6.558-2.281-13.087-3.645-19.538c0.922,6.579,1.842,13.147,2.763,19.714
						c0.454,3.306,0.908,6.606,1.362,9.909l1.245,9.613c-2.671,3.739-5.394,7.442-8.124,11.138l-2.25,3.066l-1.034-8.549
						c-0.432-3.302-0.836-6.598-1.332-9.865c-0.969-6.559-2.006-13.065-3.252-19.523c0.788,6.568,1.576,13.124,2.363,19.68
						C554.709,372.789,555.096,376.083,555.484,379.38z"/>
				</g>
			</g>
			<g>
				<g>
					<path style="fill:#18D99F;" d="M220.932,396.078h12.584c-0.175-3.39-0.334-6.781-0.473-10.173l-0.212-0.215l-8.52-8.706
						c-2.818-2.933-5.654-5.846-8.428-8.86l-8.295-9.06c-2.737-3.08-5.446-6.145-8.122-9.299l8.602,8.772l8.561,8.76l8.559,8.709
						l7.78,7.793l-0.181-4.988c-0.148-5.456-0.281-10.913-0.345-16.371l-0.065-0.068l-8.387-8.913
						c-2.762-3.001-5.596-5.984-8.294-9.067l-8.156-9.265c-2.658-3.148-5.358-6.28-7.977-9.502l8.469,8.984l8.429,8.971l8.426,8.918
						c2.491,2.634,5,5.251,7.527,7.851c-0.091-6.759-0.113-13.52-0.08-20.281l0.012-1.047l-6.773-7.494
						c-2.249-2.531-4.546-5.037-6.728-7.635l-6.614-7.792c-2.147-2.649-4.328-5.277-6.442-7.986l6.943,7.478l6.892,7.503
						l6.863,7.489l5.884,6.369c0.121-7.05,0.288-14.098,0.524-21.144l-0.068-0.078c-3.514-4.004-7.066-8.048-10.457-12.204
						l-5.105-6.265c-1.658-2.134-3.331-4.242-4.948-6.424c1.85,1.952,3.631,3.961,5.452,5.926l5.392,5.982
						c3.268,3.661,6.539,7.325,9.81,10.99c0.143-4.133,0.305-8.265,0.504-12.396l0.481-8.67l-0.206-0.244
						c-1.934-2.302-3.894-4.617-5.722-7.019c-1.851-2.39-3.683-4.81-5.403-7.347c2.147,2.131,4.182,4.357,6.199,6.589
						c1.782,1.954,3.517,3.963,5.254,5.969l0.557-8.614c0.482-6.439,1.021-12.873,1.623-19.301
						c-0.375,6.444-0.686,12.892-0.94,19.341l-0.369,8.256c1.855-1.764,3.731-3.51,5.67-5.186l3.501-3.015
						c1.201-0.961,2.369-1.958,3.598-2.88c-1.018,1.172-2.096,2.275-3.142,3.42l-3.242,3.321c-2.13,2.17-4.283,4.276-6.466,6.384
						l-0.321,9.042c-0.159,4.007-0.286,8.015-0.391,12.024c3.368-3.325,6.736-6.617,10.208-9.81
						c3.884-3.615,7.804-7.175,11.853-10.58c-3.665,3.848-7.395,7.616-11.131,11.403c-3.667,3.687-7.328,7.369-10.989,11.051
						c-0.181,7.043-0.289,14.088-0.357,21.133l5.729-5.802c2.368-2.378,4.716-4.777,7.153-7.085
						c4.806-4.66,9.675-9.244,14.659-13.654c-4.595,4.846-9.271,9.634-13.923,14.463c-2.338,2.415-4.672,4.824-7.008,7.236
						l-6.618,6.899l-0.005,1.419c-0.089,6.63-0.122,13.26-0.093,19.891l7.103-7.499c2.814-2.923,5.578-5.859,8.461-8.7
						c5.688-5.725,11.457-11.347,17.342-16.772c-5.538,5.863-11.065,11.715-16.593,17.566c-2.774,2.952-5.543,5.899-8.314,8.848
						l-7.99,8.637c0.014,5.578,0.106,11.156,0.209,16.733l0.072,4.616l7.032-7.733c2.75-2.964,5.466-5.942,8.254-8.826
						c5.569-5.81,11.17-11.519,16.943-17.035c-5.398,5.945-10.786,11.88-16.174,17.814c-2.704,2.993-5.403,5.98-8.105,8.971
						l-7.918,8.907c0.074,3.526,0.176,7.052,0.265,10.578h11.541c2.791-2.745,5.836-6.054,8.843-9.931
						c9.17-11.842,17.965-28.655,18.247-50.964c0.291-22.828-8.621-44.113-17.521-60.238c-4.468-8.037-8.928-14.722-12.288-19.404
						c-3.354-4.682-5.627-7.347-5.627-7.347s-2.678,2.22-6.76,6.342c-4.076,4.123-9.539,10.164-15.01,17.82
						c-10.973,15.255-22.012,37.224-22.325,61.755c-0.303,23.96,9.253,41.731,19.136,53.329
						C215.333,390.82,218.227,393.679,220.932,396.078z"/>
					<path style="fill:#FFFFFF;" d="M216.628,367.296l-8.561-8.76l-8.602-8.772c2.676,3.155,5.385,6.219,8.122,9.299l8.295,9.06
						c2.774,3.014,5.61,5.928,8.428,8.86l8.52,8.706l0.212,0.215c0.139,3.392,0.298,6.783,0.473,10.173h0.708
						c-0.089-3.526-0.191-7.052-0.265-10.578l7.918-8.907c2.701-2.99,5.401-5.978,8.105-8.971
						c5.388-5.934,10.776-11.869,16.174-17.814c-5.773,5.515-11.374,11.225-16.943,17.035c-2.788,2.884-5.504,5.862-8.254,8.826
						l-7.032,7.733l-0.072-4.616c-0.103-5.577-0.195-11.155-0.209-16.733l7.99-8.637c2.771-2.949,5.54-5.896,8.314-8.848
						c5.528-5.852,11.055-11.704,16.593-17.566c-5.885,5.425-11.654,11.048-17.342,16.772c-2.883,2.841-5.647,5.778-8.461,8.7
						l-7.103,7.499c-0.029-6.631,0.003-13.261,0.093-19.891l0.005-1.419l6.618-6.899c2.336-2.412,4.669-4.821,7.008-7.236
						c4.652-4.829,9.328-9.618,13.923-14.463c-4.984,4.41-9.853,8.994-14.659,13.654c-2.437,2.309-4.785,4.707-7.153,7.085
						l-5.729,5.802c0.067-7.045,0.175-14.09,0.357-21.133c3.661-3.682,7.322-7.363,10.989-11.051
						c3.736-3.787,7.465-7.555,11.131-11.403c-4.049,3.405-7.97,6.965-11.853,10.58c-3.472,3.193-6.841,6.485-10.208,9.81
						c0.104-4.009,0.232-8.017,0.391-12.024l0.321-9.042c2.182-2.108,4.336-4.214,6.466-6.384l3.242-3.321
						c1.046-1.145,2.124-2.248,3.142-3.42c-1.229,0.922-2.397,1.919-3.598,2.88l-3.501,3.015c-1.939,1.676-3.815,3.422-5.67,5.186
						l0.369-8.256c0.254-6.449,0.565-12.896,0.94-19.341c-0.602,6.427-1.141,12.862-1.623,19.301l-0.557,8.614
						c-1.736-2.006-3.471-4.015-5.254-5.969c-2.017-2.232-4.052-4.458-6.199-6.589c1.72,2.538,3.551,4.957,5.403,7.347
						c1.829,2.402,3.788,4.718,5.722,7.019l0.206,0.244l-0.481,8.67c-0.198,4.131-0.361,8.263-0.504,12.396
						c-3.271-3.665-6.542-7.329-9.81-10.99l-5.392-5.982c-1.821-1.965-3.602-3.974-5.452-5.926c1.617,2.183,3.29,4.29,4.948,6.424
						l5.105,6.265c3.391,4.156,6.943,8.199,10.457,12.204l0.068,0.078c-0.235,7.046-0.403,14.094-0.524,21.144l-5.884-6.369
						l-6.863-7.489l-6.892-7.503l-6.943-7.478c2.115,2.709,4.296,5.337,6.442,7.986l6.614,7.792
						c2.183,2.598,4.479,5.104,6.728,7.635l6.773,7.494l-0.012,1.047c-0.034,6.76-0.011,13.521,0.08,20.281
						c-2.527-2.6-5.036-5.217-7.527-7.851l-8.426-8.918l-8.429-8.971l-8.469-8.984c2.619,3.221,5.319,6.354,7.977,9.502l8.156,9.265
						c2.698,3.083,5.532,6.065,8.294,9.067l8.387,8.913l0.065,0.068c0.064,5.458,0.196,10.915,0.345,16.371l0.181,4.988l-7.78-7.793
						L216.628,367.296z"/>
				</g>
				<g>
					<path style="fill:#00C4FF;" d="M182.969,396.078h38.993c-2.078-2.63-4.144-5.27-6.196-7.921l-0.312-0.055l-12.557-2.266
						c-4.185-0.795-8.375-1.562-12.572-2.453l-12.58-2.705c-4.206-0.97-8.378-1.943-12.577-3.013l12.667,2.273l12.625,2.288
						l12.592,2.245l11.371,1.935l-3.18-4.15c-3.436-4.569-6.86-9.149-10.226-13.771l-0.097-0.019l-12.569-2.523
						c-4.18-0.887-8.409-1.716-12.583-2.711l-12.586-2.964c-4.179-1.076-8.386-2.112-12.576-3.274l12.683,2.534l12.64,2.547
						l12.606,2.504c3.725,0.738,7.455,1.451,11.19,2.138c-4.178-5.717-8.299-11.477-12.371-17.27l-0.625-0.901l-10.33-2.291
						c-3.456-0.797-6.938-1.544-10.377-2.438l-10.374-2.642c-3.44-0.96-6.897-1.881-10.346-2.911l10.465,2.174l10.436,2.226
						l10.404,2.232l8.888,1.869c-4.173-6.093-8.306-12.214-12.38-18.373l-0.106-0.025c-5.43-1.287-10.916-2.586-16.333-4.078
						l-8.16-2.253c-2.71-0.817-5.418-1.601-8.123-2.484c2.764,0.545,5.504,1.18,8.251,1.753l8.233,1.837
						c5.012,1.144,10.027,2.289,15.044,3.434c-2.385-3.616-4.753-7.243-7.09-10.891l-4.849-7.696l-0.324-0.083
						c-3.048-0.792-6.126-1.581-9.145-2.523c-3.031-0.918-6.063-1.873-9.071-2.997c3.126,0.517,6.214,1.183,9.291,1.866
						c2.707,0.587,5.408,1.251,8.107,1.91l-4.75-7.694c-3.495-5.791-6.938-11.613-10.323-17.467
						c3.589,5.731,7.235,11.425,10.93,17.086l4.693,7.274c0.514-2.632,1.057-5.26,1.697-7.868l1.16-4.698
						c0.442-1.549,0.836-3.109,1.326-4.642c-0.158,1.618-0.409,3.214-0.608,4.826l-0.754,4.802c-0.502,3.145-1.064,6.25-1.649,9.374
						l5.211,7.916c2.295,3.518,4.618,7.018,6.961,10.504c0.858-4.883,1.738-9.737,2.766-14.57
						c1.123-5.443,2.311-10.861,3.704-16.225c-0.796,5.51-1.695,10.99-2.587,16.49c-0.895,5.373-1.788,10.738-2.681,16.103
						c4.118,6.125,8.3,12.206,12.516,18.263l1.372-8.43c0.579-3.467,1.13-6.94,1.81-10.39c1.277-6.895,2.654-13.763,4.235-20.553
						c-0.985,6.926-2.073,13.851-3.115,20.797c-0.532,3.481-1.063,6.954-1.595,10.431l-1.466,9.906l0.856,1.214
						c3.945,5.716,7.94,11.398,11.988,17.042l1.517-10.712c0.63-4.203,1.209-8.387,1.948-12.563
						c1.385-8.339,2.901-16.641,4.635-24.843c-1.173,8.366-2.343,16.716-3.513,25.066c-0.578,4.204-1.155,8.4-1.732,12.6
						l-1.583,12.223c3.396,4.755,6.858,9.462,10.329,14.162l2.861,3.899l1.314-10.87c0.55-4.199,1.063-8.389,1.694-12.543
						c1.231-8.34,2.55-16.613,4.134-24.825c-1.003,8.352-2.004,16.688-3.005,25.023c-0.493,4.196-0.986,8.385-1.479,12.577
						l-1.359,12.409c2.19,2.949,4.404,5.882,6.607,8.822h8.409c1.286-5.128,2.654-12.344,3.01-20.796
						c0.647-15.675-2.042-35.368-15.334-54.59c-13.6-19.671-34.122-32.441-51.505-40.811c-8.691-4.152-16.555-7.156-22.264-9.116
						c-5.704-1.963-9.262-2.861-9.262-2.861s-0.94,3.52-1.926,9.517c-0.98,5.993-1.98,14.466-2.007,24.323
						c-0.116,19.683,3.784,45.14,18.398,66.279C159.995,381.86,171.658,390.618,182.969,396.078z"/>
					<path style="fill:#FFFFFF;" d="M148.645,321.301c-2.747-0.573-5.487-1.208-8.251-1.753c2.705,0.883,5.413,1.667,8.123,2.484
						l8.16,2.253c5.417,1.492,10.903,2.79,16.333,4.078l0.106,0.025c4.074,6.16,8.207,12.28,12.38,18.373l-8.888-1.869
						l-10.404-2.232l-10.436-2.226l-10.465-2.174c3.449,1.031,6.906,1.951,10.346,2.911l10.374,2.642
						c3.44,0.894,6.921,1.641,10.377,2.438l10.33,2.291l0.625,0.901c4.072,5.793,8.193,11.553,12.371,17.27
						c-3.736-0.687-7.465-1.4-11.19-2.138l-12.606-2.504l-12.64-2.547l-12.683-2.534c4.191,1.162,8.397,2.199,12.576,3.274
						l12.586,2.964c4.174,0.995,8.403,1.824,12.583,2.711l12.569,2.523l0.097,0.019c3.366,4.622,6.789,9.202,10.226,13.771
						l3.18,4.15l-11.371-1.935l-12.592-2.245l-12.625-2.288l-12.667-2.273c4.199,1.07,8.371,2.043,12.577,3.013l12.58,2.705
						c4.197,0.891,8.387,1.659,12.572,2.453l12.557,2.266l0.312,0.055c2.052,2.651,4.118,5.291,6.196,7.921h0.947
						c-2.203-2.94-4.417-5.873-6.607-8.822l1.359-12.409c0.493-4.192,0.986-8.381,1.479-12.577
						c1.001-8.336,2.002-16.672,3.005-25.023c-1.584,8.212-2.903,16.485-4.134,24.825c-0.631,4.154-1.144,8.344-1.694,12.543
						l-1.314,10.87l-2.861-3.899c-3.471-4.7-6.933-9.408-10.329-14.162l1.583-12.223c0.577-4.2,1.154-8.396,1.732-12.6
						c1.17-8.35,2.34-16.701,3.513-25.066c-1.734,8.202-3.25,16.504-4.635,24.843c-0.738,4.175-1.318,8.36-1.948,12.563
						l-1.517,10.712c-4.047-5.644-8.042-11.326-11.988-17.042l-0.856-1.214l1.466-9.906c0.532-3.477,1.063-6.95,1.595-10.431
						c1.043-6.946,2.131-13.871,3.115-20.797c-1.581,6.789-2.958,13.658-4.235,20.553c-0.68,3.449-1.23,6.923-1.81,10.39
						l-1.372,8.43c-4.216-6.057-8.397-12.138-12.516-18.263c0.893-5.365,1.786-10.73,2.681-16.103
						c0.893-5.5,1.792-10.98,2.587-16.49c-1.393,5.364-2.581,10.782-3.704,16.225c-1.028,4.833-1.908,9.687-2.766,14.57
						c-2.343-3.486-4.666-6.986-6.961-10.504l-5.211-7.916c0.585-3.124,1.146-6.228,1.649-9.374l0.754-4.802
						c0.199-1.612,0.45-3.208,0.608-4.826c-0.49,1.533-0.883,3.092-1.326,4.642l-1.16,4.698c-0.639,2.607-1.182,5.236-1.697,7.868
						l-4.693-7.274c-3.695-5.661-7.341-11.355-10.93-17.086c3.385,5.854,6.828,11.676,10.323,17.467l4.75,7.694
						c-2.7-0.66-5.4-1.323-8.107-1.91c-3.077-0.683-6.165-1.349-9.291-1.866c3.008,1.124,6.04,2.079,9.071,2.997
						c3.019,0.942,6.097,1.731,9.145,2.523l0.324,0.083l4.849,7.696c2.337,3.648,4.705,7.275,7.09,10.891
						c-5.017-1.145-10.032-2.29-15.044-3.434L148.645,321.301z"/>
				</g>
			</g>
			<g>
				<g>
					<g>
						<g>
							<path style="fill:#F7F7F8;" d="M518.645,385.343H252.351c-0.75,0-1.359-0.608-1.359-1.359V201.603
								c0-4.049,3.283-7.332,7.332-7.332h254.348c4.049,0,7.332,3.283,7.332,7.332v182.381
								C520.004,384.734,519.395,385.343,518.645,385.343z"/>
							
								<rect x="299.434" y="164.773" transform="matrix(-1.836970e-16 1 -1 -1.836970e-16 675.3046 -95.6911)" style="fill:#F8F6F5;" width="172.127" height="250.068"/>
							
								<linearGradient id="SVGID_00000089538167317725121750000015870361918228915882_" gradientUnits="userSpaceOnUse" x1="260.4641" y1="289.8068" x2="510.5317" y2="289.8068">
								<stop  offset="0" style="stop-color:#E5F6F9"/>
								<stop  offset="1" style="stop-color:#67D6F4"/>
							</linearGradient>
							<polygon style="fill:url(#SVGID_00000089538167317725121750000015870361918228915882_);" points="419.942,203.743 
								260.464,203.743 260.464,375.87 419.942,375.87 510.532,375.87 510.532,203.743 							"/>
						</g>
						<g>
							<path style="fill:#FFFFFF;" d="M543.893,396.078h-316.79c-3.372,0-6.106-2.734-6.106-6.106v-3.752
								c0-0.484,0.393-0.877,0.877-0.877h327.248c0.484,0,0.877,0.393,0.877,0.877v3.752
								C549.999,393.344,547.265,396.078,543.893,396.078z"/>
							<path style="fill:#7CC7D6;" d="M221.757,392.921c1.04,1.882,3.044,3.157,5.346,3.157h316.79c2.303,0,4.306-1.276,5.346-3.157
								H221.757z"/>
							<path style="fill:#B5B4B5;" d="M403.1,389.605h-35.205c-2.354,0-4.262-1.908-4.262-4.262l0,0h43.73l0,0
								C407.363,387.697,405.454,389.605,403.1,389.605z"/>
						</g>
						<g>
							<path style="fill:#D7D8DC;" d="M385.497,201.207c-0.876,0-1.589-0.713-1.589-1.59c0-0.877,0.713-1.59,1.589-1.59
								c0.877,0,1.59,0.713,1.59,1.59C387.088,200.494,386.375,201.207,385.497,201.207z M385.497,198.975
								c-0.354,0-0.642,0.288-0.642,0.643c0,0.354,0.288,0.642,0.642,0.642c0.354,0,0.643-0.288,0.643-0.642
								C386.14,199.263,385.852,198.975,385.497,198.975z"/>
						</g>
					</g>
				</g>
				
					<linearGradient id="SVGID_00000119815074100972168870000011711326381341382285_" gradientUnits="userSpaceOnUse" x1="2778.3303" y1="269.3585" x2="2861.9619" y2="269.3585" gradientTransform="matrix(-1 0 0 1 3298.3303 0)">
					<stop  offset="0" style="stop-color:#FFFFFF;stop-opacity:0.2"/>
					<stop  offset="1" style="stop-color:#FFFFFF"/>
				</linearGradient>
				<path style="opacity:0.28;fill:url(#SVGID_00000119815074100972168870000011711326381341382285_);" d="M436.368,194.271h76.3
					c4.049,0,7.332,3.283,7.332,7.332v142.843L436.368,194.271z"/>
			</g>
			<g>
				<g>
					
						<radialGradient id="SVGID_00000054962163556147789440000009405323442686598571_" cx="641.6547" cy="369.4808" r="14.5593" gradientUnits="userSpaceOnUse">
						<stop  offset="0" style="stop-color:#FFC478"/>
						<stop  offset="0.1463" style="stop-color:#FFC070"/>
						<stop  offset="0.3759" style="stop-color:#FFB759"/>
						<stop  offset="0.66" style="stop-color:#FFA735"/>
						<stop  offset="0.985" style="stop-color:#FF9102"/>
						<stop  offset="1" style="stop-color:#FF9000"/>
					</radialGradient>
					<path style="fill:url(#SVGID_00000054962163556147789440000009405323442686598571_);" d="M636.566,386.227
						c-2.305-0.023-4.607-0.236-6.888-0.64l0.966-5.461c3.703,0.655,7.467,0.732,11.187,0.23c2.758-0.37,4.506-1.105,5.345-2.244
						c0.993-1.349,0.966-3.589,0.844-5.961l-0.312-6.033c-0.083-1.612-0.169-3.277-0.749-4.534c-0.703-1.521-2.322-2.72-4.226-3.13
						c-1.843-0.397-4.019-0.104-6.125,0.821l-2.231-5.076c3.214-1.411,6.505-1.814,9.523-1.167c3.628,0.78,6.653,3.107,8.093,6.226
						c1.03,2.229,1.154,4.639,1.253,6.574l0.312,6.033c0.133,2.582,0.333,6.48-1.917,9.535c-2.367,3.214-6.31,4.081-9.07,4.452
						C640.576,386.123,638.57,386.247,636.566,386.227z"/>
				</g>
				<g>
					<g style="enable-background:new    ;">
						<g>
							<path style="fill:#FF7E00;" d="M636.954,341.803c6.947,4.038,1.014,8.751-13.253,10.526
								c-14.267,1.776-31.464-0.059-38.411-4.096c-6.947-4.038-1.014-8.751,13.253-10.526
								C612.81,335.931,630.007,337.765,636.954,341.803z"/>
							<path style="fill:#E15372;" d="M611.255,351.676c-10.754-0.106-20.684-1.907-25.299-4.59
								c-1.563-0.908-2.375-1.84-2.228-2.557c0.264-1.293,3.733-4.107,14.977-5.507c3.872-0.482,8.005-0.705,12.284-0.663
								c10.754,0.106,20.683,1.908,25.297,4.59c1.563,0.908,2.375,1.839,2.228,2.557c-0.264,1.293-3.733,4.108-14.979,5.508
								C619.667,351.496,615.534,351.718,611.255,351.676z"/>
							<g>
								
									<radialGradient id="SVGID_00000156585190516989969200000013468018555649585026_" cx="611.1223" cy="343.4867" r="19.7188" gradientUnits="userSpaceOnUse">
									<stop  offset="0" style="stop-color:#FFC478"/>
									<stop  offset="0.1463" style="stop-color:#FFC070"/>
									<stop  offset="0.3759" style="stop-color:#FFB759"/>
									<stop  offset="0.66" style="stop-color:#FFA735"/>
									<stop  offset="0.985" style="stop-color:#FF9102"/>
									<stop  offset="1" style="stop-color:#FF9000"/>
								</radialGradient>
								<path style="fill:url(#SVGID_00000156585190516989969200000013468018555649585026_);" d="M610.925,345.016
									c9.373,0.092,18.118,1.474,23.264,3.603c3.008-1.171,4.178-2.384,4.326-3.113c0.147-0.717-0.665-1.649-2.228-2.557
									c-4.614-2.682-14.543-4.484-25.297-4.59c-4.279-0.042-8.412,0.181-12.284,0.663c-11.244,1.4-14.713,4.214-14.977,5.507
									c-0.147,0.717,0.665,1.649,2.228,2.557c0.592,0.344,1.275,0.673,2.032,0.987c2.325-0.905,5.748-1.784,10.651-2.395
									C602.513,345.197,606.646,344.974,610.925,345.016z"/>
								<path style="fill:#FFFFFF;" d="M623.537,351.014c4.904-0.61,8.327-1.49,10.652-2.395
									c-5.147-2.129-13.891-3.511-23.264-3.603c-4.279-0.042-8.412,0.181-12.284,0.663c-4.903,0.61-8.326,1.49-10.651,2.395
									c5.147,2.129,13.892,3.51,23.266,3.603C615.534,351.718,619.667,351.496,623.537,351.014z"/>
							</g>
						</g>
						<g>
							
								<radialGradient id="SVGID_00000021096333221241927440000006730861028868081292_" cx="606.5" cy="355.5" r="35.4683" gradientUnits="userSpaceOnUse">
								<stop  offset="0" style="stop-color:#FFC478"/>
								<stop  offset="0.1463" style="stop-color:#FFC070"/>
								<stop  offset="0.3759" style="stop-color:#FFB759"/>
								<stop  offset="0.66" style="stop-color:#FFA735"/>
								<stop  offset="0.985" style="stop-color:#FF9102"/>
								<stop  offset="1" style="stop-color:#FF9000"/>
							</radialGradient>
							<path style="fill:url(#SVGID_00000021096333221241927440000006730861028868081292_);" d="M589.325,395.487l-6.933-50.582
								c0.137,1.107,1.033,2.244,2.898,3.328c6.947,4.038,24.144,5.872,38.411,4.096c9.935-1.236,15.829-3.897,16.146-6.763
								l-8.099,50.409L589.325,395.487z"/>
						</g>
					</g>
				</g>
			</g>
			<g>
				<path style="fill:#00C4FF;" d="M629.558,201.614c0.013-0.719,0.007-1.442-0.017-2.169
					c-0.737-22.331-19.106-40.328-41.448-40.636c-23.503-0.324-42.657,18.631-42.657,42.06c0,0.303,0.003,0.606,0.01,0.908
					c0.042,1.958,0.228,3.902,0.55,5.82c1.213,7.204,4.462,13.911,9.174,19.493l32.33,38.302l32.342-38.315
					c4.52-5.355,7.699-11.746,9.009-18.63C629.278,206.202,629.518,203.917,629.558,201.614z"/>
				
					<ellipse transform="matrix(0.2326 -0.9726 0.9726 0.2326 255.4867 725.5327)" style="fill:#FFFFFF;" cx="587.501" cy="200.869" rx="28.66" ry="28.66"/>
			</g>
			<g>
				<g>
					<g>
						<g>
							<polygon style="fill:#FFC09C;" points="418.419,235.819 350.579,235.819 353.579,188.607 415.418,188.607 							"/>
							<g>
								<path style="fill:#FFC09C;" d="M331.194,142.533c-0.266-3.183-3.062-5.548-6.245-5.281l0,0
									c-3.513,0.294-5.948,3.635-5.152,7.069c0,0,2.827,5.181,5.618,12.748c1.458,3.953,1.466,8.194,1.12,12.393
									c-0.182,2.206,1.262,4.516,4.118,4.355C336.716,173.475,331.194,142.533,331.194,142.533z"/>
								<path style="fill:#FFC09C;" d="M439.822,142.424c0.38-3.171,3.259-5.434,6.43-5.055l0,0c3.5,0.419,5.815,3.846,4.896,7.249
									c0,0-3.01,5.077-6.07,12.539c-1.598,3.898-1.759,8.136-1.563,12.345c0.103,2.211-1.422,4.468-4.271,4.205
									C433.198,173.149,439.822,142.424,439.822,142.424z"/>
							</g>
							<path style="fill:#FFC09C;" d="M443.196,135.305c0,40.593-25.832,79.5-57.698,79.5c-31.866,0-57.698-38.907-57.698-79.5
								s25.832-60.167,57.698-60.167C417.364,75.138,443.196,94.712,443.196,135.305z"/>
						</g>
						<g>
							
								<radialGradient id="SVGID_00000099641867552851387020000005607129066651382456_" cx="362.732" cy="111.8386" r="70.4727" gradientUnits="userSpaceOnUse">
								<stop  offset="0" style="stop-color:#FFC478"/>
								<stop  offset="0.1463" style="stop-color:#FFC070"/>
								<stop  offset="0.3759" style="stop-color:#FFB759"/>
								<stop  offset="0.66" style="stop-color:#FFA735"/>
								<stop  offset="0.985" style="stop-color:#FF9102"/>
								<stop  offset="1" style="stop-color:#FF9000"/>
							</radialGradient>
							<path style="fill:url(#SVGID_00000099641867552851387020000005607129066651382456_);" d="M440.876,94.138
								c-8.139-11.093-21.405-13.059-21.425-12.979c1.544-5.923-1.887-13.355-9.827-12.935c-0.387,0.021-0.736,0.093-1.095,0.151
								c-1.077-6.263-5.833-11.806-14.025-11.372c-8.328,0.441-12.484,6.668-12.768,13.136c-0.135,0.194-0.263,0.396-0.401,0.587
								c-0.044,0.002-0.086,0.002-0.13,0.004c-33.247,1.76-62.556,19.035-56.36,55.021c1.16,6.738,2.044,13.515,2.415,20.343
								c1.163,21.447,9.361,67.493,58.238,68.711c48.504,1.208,56.097-49.281,57.216-68.961c0.288-5.071,0.868-10.118,1.701-15.129
								C446.683,117.066,446.327,101.568,440.876,94.138z"/>
							<g style="opacity:0.15;">
								<path style="fill:#FF6A00;" d="M385.498,202.805c-48.878-1.218-58.571-62.846-58.238-56.711
									c1.163,21.447,9.361,67.493,58.238,68.711c48.504,1.208,56.097-49.281,57.216-68.961c0.288-5.071,0.868-10.118,1.701-15.129
									C444.574,129.754,434.002,204.013,385.498,202.805z"/>
							</g>
						</g>
					</g>
					<g>
						<g>
							<g>
								<path style="fill:#FFB78D;" d="M260.681,402.782h-17.256v-8.628c0-9.53,7.726-17.256,17.256-17.256l0,0V402.782z"/>
								<path style="fill:#FFC09C;" d="M273.408,319.953l-29.355,79.912c-1.088,2.962-0.905,6.242,0.506,9.065l2.386,4.773
									c2.364,4.729,7.659,7.222,12.811,6.034l0,0c8.518-1.966,15.469-8.096,18.483-16.302l26.229-71.402L273.408,319.953z"/>
							</g>
							<g>
								<path style="fill:#FFB78D;" d="M510.314,402.782h17.256v-8.628c0-9.53-7.726-17.256-17.256-17.256l0,0V402.782z"/>
								<path style="fill:#FFC09C;" d="M497.588,319.953l29.356,79.912c1.088,2.962,0.905,6.242-0.506,9.065l-2.386,4.773
									c-2.364,4.729-7.659,7.222-12.811,6.034l0,0c-8.518-1.966-15.469-8.096-18.483-16.302l-26.229-71.402L497.588,319.953z"/>
							</g>
						</g>
						<path style="fill:#00064A;" d="M309.914,444.303c0.321,26.867-1.971,54.327,8.782,64.189
							c24.616,22.575,108.987,22.575,133.603,0c10.753-9.862,8.461-37.321,8.782-64.189H309.914z"/>
						
							<radialGradient id="SVGID_00000080917702291585677500000006989016146901694909_" cx="385.4979" cy="354.6265" r="122.6596" gradientUnits="userSpaceOnUse">
							<stop  offset="0.449" style="stop-color:#6EDEFF"/>
							<stop  offset="0.547" style="stop-color:#6ADDFF"/>
							<stop  offset="0.6546" style="stop-color:#5CDAFF"/>
							<stop  offset="0.7666" style="stop-color:#46D5FF"/>
							<stop  offset="0.8817" style="stop-color:#28CDFF"/>
							<stop  offset="0.9981" style="stop-color:#01C4FF"/>
							<stop  offset="1" style="stop-color:#00C4FF"/>
						</radialGradient>
						<path style="fill:url(#SVGID_00000080917702291585677500000006989016146901694909_);" d="M446.736,241.873
							c-12.752-6.67-27.014-9.925-41.405-9.925h-39.613c-15.134,0-30.075,3.661-43.346,10.936
							c-20.673,11.333-46.42,34.104-59.515,79.431l49.794,20.286c0,0-11.681,98.693,10.299,118.851
							c23.049,21.138,102.046,21.138,125.095,0c21.98-20.158,10.299-118.851,10.299-118.851l49.794-20.286
							C494.642,275.597,467.705,252.841,446.736,241.873z"/>
					</g>
				</g>
				<g>
					<path style="fill:#F8F6F5;" d="M502.515,523.467c-0.006-0.125-0.013-0.251-0.021-0.376
						c-0.891-14.114-13.857-24.327-27.913-22.765l-25.896,2.877c-41.995,4.666-84.378,4.666-126.372,0l-25.896-2.877
						c-14.055-1.562-27.022,8.651-27.913,22.765c-0.008,0.126-0.015,0.251-0.021,0.376c-0.334,6.935,5.374,12.675,12.317,12.675
						h209.397"/>
					<path style="fill:#F8F6F5;" d="M300.014,506.578h171.002l3.037-141.322c4.218-61.862-54.304-110.47-113.725-92.754
						c-1.4,0.417-2.8,0.866-4.2,1.345c-37.985,13.006-61.929,50.636-59.199,90.693C298.06,381.13,299.235,495.148,300.014,506.578z"
						/>
					<path style="fill:#00C4FF;" d="M401.015,355.538h-31.043c-9.108,0-16.492-7.384-16.492-16.492l0,0
						c0-9.108,7.384-16.492,16.492-16.492h31.043c9.108,0,16.492,7.384,16.492,16.492l0,0
						C417.507,348.155,410.123,355.538,401.015,355.538z"/>
					<path style="fill:#222A63;" d="M385.493,578.663L385.493,578.663c-8.037,0-14.552-6.515-14.552-14.552V335.623
						c0-2.931,2.376-5.308,5.308-5.308h18.488c2.931,0,5.308,2.376,5.308,5.308v228.488
						C400.045,572.148,393.53,578.663,385.493,578.663z"/>
					<path style="fill:#121A4F;" d="M425.267,566.701h-79.549c-6.429,0-11.641-5.212-11.641-11.641l0,0h102.831l0,0
						C436.909,561.489,431.697,566.701,425.267,566.701z"/>
					<path style="fill:#222A63;" d="M471.832,555.059H299.154c-10.715,0-19.402-8.687-19.402-19.402l0,0h211.483l0,0
						C491.235,546.373,482.548,555.059,471.832,555.059z"/>
				</g>
			</g>
			<g>
				<g>
					
						<radialGradient id="SVGID_00000039835050936849146760000004581421793811307139_" cx="482.7499" cy="91.0176" r="4.2046" gradientUnits="userSpaceOnUse">
						<stop  offset="0" style="stop-color:#FFC478"/>
						<stop  offset="0.1463" style="stop-color:#FFC070"/>
						<stop  offset="0.3759" style="stop-color:#FFB759"/>
						<stop  offset="0.66" style="stop-color:#FFA735"/>
						<stop  offset="0.985" style="stop-color:#FF9102"/>
						<stop  offset="1" style="stop-color:#FF9000"/>
					</radialGradient>
					<path style="fill:url(#SVGID_00000039835050936849146760000004581421793811307139_);" d="M478.545,91.018
						c0-2.322,1.882-4.205,4.204-4.205c2.322,0,4.205,1.882,4.205,4.205c0,2.322-1.883,4.205-4.205,4.205
						C480.428,95.222,478.545,93.34,478.545,91.018z"/>
					
						<linearGradient id="SVGID_00000068665437655158755680000017962889176289983617_" gradientUnits="userSpaceOnUse" x1="491.365" y1="91.0175" x2="532.8741" y2="91.0175">
						<stop  offset="0" style="stop-color:#E5F6F9"/>
						<stop  offset="1" style="stop-color:#67D6F4"/>
					</linearGradient>
					
						<rect x="491.365" y="87.339" style="fill:url(#SVGID_00000068665437655158755680000017962889176289983617_);" width="41.509" height="7.357"/>
				</g>
				<g>
					<path style="fill:#18D99F;" d="M478.545,108.341c0-2.322,1.882-4.205,4.204-4.205c2.322,0,4.205,1.882,4.205,4.205
						s-1.883,4.204-4.205,4.204C480.428,112.546,478.545,110.663,478.545,108.341z"/>
					
						<linearGradient id="SVGID_00000034775858979630550130000018271560542710106530_" gradientUnits="userSpaceOnUse" x1="491.365" y1="108.3413" x2="532.8741" y2="108.3413">
						<stop  offset="0" style="stop-color:#E5F6F9"/>
						<stop  offset="1" style="stop-color:#67D6F4"/>
					</linearGradient>
					
						<rect x="491.365" y="104.663" style="fill:url(#SVGID_00000034775858979630550130000018271560542710106530_);" width="41.509" height="7.357"/>
				</g>
			</g>
			<g>
				<g>
					
						<radialGradient id="SVGID_00000050651238321950804350000016098518918060688288_" cx="482.7499" cy="137" r="4.2046" gradientUnits="userSpaceOnUse">
						<stop  offset="0" style="stop-color:#FFC478"/>
						<stop  offset="0.1463" style="stop-color:#FFC070"/>
						<stop  offset="0.3759" style="stop-color:#FFB759"/>
						<stop  offset="0.66" style="stop-color:#FFA735"/>
						<stop  offset="0.985" style="stop-color:#FF9102"/>
						<stop  offset="1" style="stop-color:#FF9000"/>
					</radialGradient>
					<path style="fill:url(#SVGID_00000050651238321950804350000016098518918060688288_);" d="M478.545,137
						c0-2.322,1.882-4.205,4.204-4.205c2.322,0,4.205,1.882,4.205,4.205c0,2.322-1.883,4.205-4.205,4.205
						C480.428,141.205,478.545,139.322,478.545,137z"/>
					
						<linearGradient id="SVGID_00000168108064449084462590000005876215840767538842_" gradientUnits="userSpaceOnUse" x1="491.365" y1="137" x2="532.8741" y2="137">
						<stop  offset="0" style="stop-color:#E5F6F9"/>
						<stop  offset="1" style="stop-color:#67D6F4"/>
					</linearGradient>
					
						<rect x="491.365" y="133.322" style="fill:url(#SVGID_00000168108064449084462590000005876215840767538842_);" width="41.509" height="7.357"/>
				</g>
				<g>
					<path style="fill:#00C4FF;" d="M478.545,154.324c0-2.322,1.882-4.205,4.204-4.205c2.322,0,4.205,1.883,4.205,4.205
						s-1.883,4.204-4.205,4.204C480.428,158.528,478.545,156.646,478.545,154.324z"/>
					
						<linearGradient id="SVGID_00000009582947275216449690000015340633629389730474_" gradientUnits="userSpaceOnUse" x1="491.365" y1="154.3238" x2="532.8741" y2="154.3238">
						<stop  offset="0" style="stop-color:#E5F6F9"/>
						<stop  offset="1" style="stop-color:#67D6F4"/>
					</linearGradient>
					
						<rect x="491.365" y="150.645" style="fill:url(#SVGID_00000009582947275216449690000015340633629389730474_);" width="41.509" height="7.357"/>
				</g>
			</g>
			
				<linearGradient id="SVGID_00000045582133736784522990000006928664922973664420_" gradientUnits="userSpaceOnUse" x1="468.6387" y1="123.0037" x2="542.7808" y2="123.0037">
				<stop  offset="0" style="stop-color:#E5F6F9"/>
				<stop  offset="1" style="stop-color:#67D6F4"/>
			</linearGradient>
			
				<line style="fill:none;stroke:url(#SVGID_00000045582133736784522990000006928664922973664420_);stroke-miterlimit:10;" x1="468.639" y1="123.004" x2="542.781" y2="123.004"/>
			
				<linearGradient id="SVGID_00000162331138960345578780000013694972349736478627_" gradientUnits="userSpaceOnUse" x1="468.6387" y1="168.6531" x2="542.7808" y2="168.6531">
				<stop  offset="0" style="stop-color:#E5F6F9"/>
				<stop  offset="1" style="stop-color:#67D6F4"/>
			</linearGradient>
			
				<line style="fill:none;stroke:url(#SVGID_00000162331138960345578780000013694972349736478627_);stroke-miterlimit:10;" x1="468.639" y1="168.653" x2="542.781" y2="168.653"/>
		</g>
	</g>
</g>
<g id="OBJECTS">
</g>
</svg>
